<svg xmlns="http://www.w3.org/2000/svg" viewBox="0 0 192 192">
  <defs>
    <linearGradient id="grad1" x1="0%" y1="0%" x2="100%" y2="100%">
      <stop offset="0%" style="stop-color:#3498db;stop-opacity:1" />
      <stop offset="100%" style="stop-color:#2980b9;stop-opacity:1" />
    </linearGradient>
  </defs>
  
  <!-- Background circle -->
  <circle cx="96" cy="96" r="88" fill="url(#grad1)"/>
  
  <!-- 3D network nodes inspired by Enginius -->
  <g fill="white">
    <!-- Central node -->
    <circle cx="96" cy="96" r="12"/>
    
    <!-- Surrounding nodes -->
    <circle cx="96" cy="50" r="8"/>
    <circle cx="142" cy="96" r="8"/>
    <circle cx="96" cy="142" r="8"/>
    <circle cx="50" cy="96" r="8"/>
    
    <!-- Corner nodes -->
    <circle cx="130" cy="62" r="6"/>
    <circle cx="130" cy="130" r="6"/>
    <circle cx="62" cy="130" r="6"/>
    <circle cx="62" cy="62" r="6"/>
  </g>
  
  <!-- Connection lines -->
  <g stroke="white" stroke-width="3" opacity="0.8">
    <!-- Main connections -->
    <line x1="96" y1="84" x2="96" y2="58"/>
    <line x1="108" y1="96" x2="134" y2="96"/>
    <line x1="96" y1="108" x2="96" y2="134"/>
    <line x1="84" y1="96" x2="58" y2="96"/>
    
    <!-- Diagonal connections -->
    <line x1="108" y1="84" x2="124" y2="68"/>
    <line x1="108" y1="108" x2="124" y2="124"/>
    <line x1="84" y1="108" x2="68" y2="124"/>
    <line x1="84" y1="84" x2="68" y2="68"/>
  </g>
  
  <!-- 3D effect highlight -->
  <circle cx="96" cy="96" r="12" fill="none" stroke="rgba(255,255,255,0.3)" stroke-width="2"/>
</svg>