<svg width="96" height="96" viewBox="0 0 96 96" xmlns="http://www.w3.org/2000/svg">
  <defs>
    <linearGradient id="bgGradient" x1="0%" y1="0%" x2="100%" y2="100%">
      <stop offset="0%" style="stop-color:#667eea;stop-opacity:1" />
      <stop offset="100%" style="stop-color:#764ba2;stop-opacity:1" />
    </linearGradient>
    <linearGradient id="cubeGradient" x1="0%" y1="0%" x2="100%" y2="100%">
      <stop offset="0%" style="stop-color:#2196F3;stop-opacity:1" />
      <stop offset="100%" style="stop-color:#1976D2;stop-opacity:1" />
    </linearGradient>
  </defs>
  
  <!-- Background circle -->
  <circle cx="48" cy="48" r="44" fill="url(#bgGradient)" stroke="#fff" stroke-width="2"/>
  
  <!-- 3D Cube representation -->
  <g transform="translate(48,48)">
    <!-- Back face -->
    <polygon points="-12,-12 12,-12 12,12 -12,12" fill="#1565C0" opacity="0.7"/>
    
    <!-- Right face -->
    <polygon points="12,-12 20,-4 20,20 12,12" fill="url(#cubeGradient)"/>
    
    <!-- Top face -->
    <polygon points="-12,-12 -4,-20 20,-20 12,-12" fill="#42A5F5"/>
    
    <!-- Front face -->
    <polygon points="-12,-12 12,-12 12,12 -12,12" fill="url(#cubeGradient)" stroke="#fff" stroke-width="0.8"/>
    
    <!-- Wireframe lines -->
    <line x1="-12" y1="-12" x2="12" y2="-12" stroke="#fff" stroke-width="1" opacity="0.8"/>
    <line x1="12" y1="-12" x2="12" y2="12" stroke="#fff" stroke-width="1" opacity="0.8"/>
    <line x1="12" y1="12" x2="-12" y2="12" stroke="#fff" stroke-width="1" opacity="0.8"/>
    <line x1="-12" y1="12" x2="-12" y2="-12" stroke="#fff" stroke-width="1" opacity="0.8"/>
    
    <!-- 3D effect lines -->
    <line x1="12" y1="-12" x2="20" y2="-4" stroke="#fff" stroke-width="0.8" opacity="0.6"/>
    <line x1="12" y1="12" x2="20" y2="20" stroke="#fff" stroke-width="0.8" opacity="0.6"/>
    <line x1="-12" y1="-12" x2="-4" y2="-20" stroke="#fff" stroke-width="0.8" opacity="0.6"/>
  </g>
  
  <!-- Touch gesture indicators -->
  <g transform="translate(75,75)" opacity="0.7">
    <circle cx="0" cy="0" r="4" fill="#fff" opacity="0.8"/>
    <circle cx="6" cy="-4" r="3" fill="#fff" opacity="0.6"/>
    <path d="M 0,0 Q 3,-2 6,-4" stroke="#fff" stroke-width="1" fill="none" opacity="0.5"/>
  </g>
</svg>