<svg width="144" height="144" viewBox="0 0 144 144" xmlns="http://www.w3.org/2000/svg">
  <defs>
    <linearGradient id="bgGradient" x1="0%" y1="0%" x2="100%" y2="100%">
      <stop offset="0%" style="stop-color:#667eea;stop-opacity:1" />
      <stop offset="100%" style="stop-color:#764ba2;stop-opacity:1" />
    </linearGradient>
    <linearGradient id="cubeGradient" x1="0%" y1="0%" x2="100%" y2="100%">
      <stop offset="0%" style="stop-color:#2196F3;stop-opacity:1" />
      <stop offset="100%" style="stop-color:#1976D2;stop-opacity:1" />
    </linearGradient>
  </defs>
  
  <!-- Background circle -->
  <circle cx="72" cy="72" r="66" fill="url(#bgGradient)" stroke="#fff" stroke-width="3"/>
  
  <!-- 3D Cube representation -->
  <g transform="translate(72,72)">
    <!-- Back face -->
    <polygon points="-19,-19 19,-19 19,19 -19,19" fill="#1565C0" opacity="0.7"/>
    
    <!-- Right face -->
    <polygon points="19,-19 30,-8 30,30 19,19" fill="url(#cubeGradient)"/>
    
    <!-- Top face -->
    <polygon points="-19,-19 -8,-30 30,-30 19,-19" fill="#42A5F5"/>
    
    <!-- Front face -->
    <polygon points="-19,-19 19,-19 19,19 -19,19" fill="url(#cubeGradient)" stroke="#fff" stroke-width="1"/>
    
    <!-- Wireframe lines -->
    <line x1="-19" y1="-19" x2="19" y2="-19" stroke="#fff" stroke-width="1.2" opacity="0.8"/>
    <line x1="19" y1="-19" x2="19" y2="19" stroke="#fff" stroke-width="1.2" opacity="0.8"/>
    <line x1="19" y1="19" x2="-19" y2="19" stroke="#fff" stroke-width="1.2" opacity="0.8"/>
    <line x1="-19" y1="19" x2="-19" y2="-19" stroke="#fff" stroke-width="1.2" opacity="0.8"/>
    
    <!-- 3D effect lines -->
    <line x1="19" y1="-19" x2="30" y2="-8" stroke="#fff" stroke-width="1" opacity="0.6"/>
    <line x1="19" y1="19" x2="30" y2="30" stroke="#fff" stroke-width="1" opacity="0.6"/>
    <line x1="-19" y1="-19" x2="-8" y2="-30" stroke="#fff" stroke-width="1" opacity="0.6"/>
  </g>
  
  <!-- Touch gesture indicators -->
  <g transform="translate(112,112)" opacity="0.7">
    <circle cx="0" cy="0" r="6" fill="#fff" opacity="0.8"/>
    <circle cx="9" cy="-6" r="4" fill="#fff" opacity="0.6"/>
    <path d="M 0,0 Q 4,-3 9,-6" stroke="#fff" stroke-width="1.5" fill="none" opacity="0.5"/>
  </g>
</svg>