<svg width="192" height="192" viewBox="0 0 192 192" xmlns="http://www.w3.org/2000/svg">
  <defs>
    <linearGradient id="bgGradient" x1="0%" y1="0%" x2="100%" y2="100%">
      <stop offset="0%" style="stop-color:#667eea;stop-opacity:1" />
      <stop offset="100%" style="stop-color:#764ba2;stop-opacity:1" />
    </linearGradient>
    <linearGradient id="cubeGradient" x1="0%" y1="0%" x2="100%" y2="100%">
      <stop offset="0%" style="stop-color:#2196F3;stop-opacity:1" />
      <stop offset="100%" style="stop-color:#1976D2;stop-opacity:1" />
    </linearGradient>
  </defs>
  
  <!-- Background circle -->
  <circle cx="96" cy="96" r="88" fill="url(#bgGradient)" stroke="#fff" stroke-width="4"/>
  
  <!-- 3D Cube representation -->
  <g transform="translate(96,96)">
    <!-- Back face -->
    <polygon points="-25,-25 25,-25 25,25 -25,25" fill="#1565C0" opacity="0.7"/>
    
    <!-- Right face -->
    <polygon points="25,-25 40,-10 40,40 25,25" fill="url(#cubeGradient)"/>
    
    <!-- Top face -->
    <polygon points="-25,-25 -10,-40 40,-40 25,-25" fill="#42A5F5"/>
    
    <!-- Front face -->
    <polygon points="-25,-25 25,-25 25,25 -25,25" fill="url(#cubeGradient)" stroke="#fff" stroke-width="1"/>
    
    <!-- Wireframe lines -->
    <line x1="-25" y1="-25" x2="25" y2="-25" stroke="#fff" stroke-width="1.5" opacity="0.8"/>
    <line x1="25" y1="-25" x2="25" y2="25" stroke="#fff" stroke-width="1.5" opacity="0.8"/>
    <line x1="25" y1="25" x2="-25" y2="25" stroke="#fff" stroke-width="1.5" opacity="0.8"/>
    <line x1="-25" y1="25" x2="-25" y2="-25" stroke="#fff" stroke-width="1.5" opacity="0.8"/>
    
    <!-- 3D effect lines -->
    <line x1="25" y1="-25" x2="40" y2="-10" stroke="#fff" stroke-width="1" opacity="0.6"/>
    <line x1="25" y1="25" x2="40" y2="40" stroke="#fff" stroke-width="1" opacity="0.6"/>
    <line x1="-25" y1="-25" x2="-10" y2="-40" stroke="#fff" stroke-width="1" opacity="0.6"/>
    <line x1="25" y1="-25" x2="40" y2="-10" stroke="#fff" stroke-width="1" opacity="0.6"/>
  </g>
  
  <!-- Touch gesture indicators -->
  <g transform="translate(150,150)" opacity="0.7">
    <circle cx="0" cy="0" r="8" fill="#fff" opacity="0.8"/>
    <circle cx="12" cy="-8" r="6" fill="#fff" opacity="0.6"/>
    <path d="M 0,0 Q 6,-4 12,-8" stroke="#fff" stroke-width="2" fill="none" opacity="0.5"/>
  </g>
</svg>