<svg xmlns="http://www.w3.org/2000/svg" viewBox="0 0 512 512">
  <defs>
    <linearGradient id="grad1" x1="0%" y1="0%" x2="100%" y2="100%">
      <stop offset="0%" style="stop-color:#3498db;stop-opacity:1" />
      <stop offset="100%" style="stop-color:#2980b9;stop-opacity:1" />
    </linearGradient>
  </defs>
  
  <!-- Background circle -->
  <circle cx="256" cy="256" r="240" fill="url(#grad1)"/>
  
  <!-- 3D network nodes inspired by Enginius -->
  <g fill="white">
    <!-- Central node -->
    <circle cx="256" cy="256" r="32"/>
    
    <!-- Surrounding nodes -->
    <circle cx="256" cy="140" r="22"/>
    <circle cx="372" cy="256" r="22"/>
    <circle cx="256" cy="372" r="22"/>
    <circle cx="140" cy="256" r="22"/>
    
    <!-- Corner nodes -->
    <circle cx="340" cy="172" r="16"/>
    <circle cx="340" cy="340" r="16"/>
    <circle cx="172" cy="340" r="16"/>
    <circle cx="172" cy="172" r="16"/>
    
    <!-- Additional outer nodes -->
    <circle cx="256" cy="80" r="12"/>
    <circle cx="432" cy="256" r="12"/>
    <circle cx="256" cy="432" r="12"/>
    <circle cx="80" cy="256" r="12"/>
  </g>
  
  <!-- Connection lines -->
  <g stroke="white" stroke-width="6" opacity="0.8">
    <!-- Main connections -->
    <line x1="256" y1="224" x2="256" y2="162"/>
    <line x1="288" y1="256" x2="350" y2="256"/>
    <line x1="256" y1="288" x2="256" y2="350"/>
    <line x1="224" y1="256" x2="162" y2="256"/>
    
    <!-- Diagonal connections -->
    <line x1="288" y1="224" x2="324" y2="188"/>
    <line x1="288" y1="288" x2="324" y2="324"/>
    <line x1="224" y1="288" x2="188" y2="324"/>
    <line x1="224" y1="224" x2="188" y2="188"/>
    
    <!-- Extended connections -->
    <line x1="256" y1="140" x2="256" y2="92"/>
    <line x1="372" y1="256" x2="420" y2="256"/>
    <line x1="256" y1="372" x2="256" y2="420"/>
    <line x1="140" y1="256" x2="92" y2="256"/>
  </g>
  
  <!-- 3D effect highlights -->
  <circle cx="256" cy="256" r="32" fill="none" stroke="rgba(255,255,255,0.3)" stroke-width="4"/>
  <circle cx="256" cy="256" r="24" fill="none" stroke="rgba(255,255,255,0.5)" stroke-width="2"/>
</svg>